<svg id="Layer_1" enable-background="new 0 0 128 128" height="512" viewBox="0 0 128 128" width="512" xmlns="http://www.w3.org/2000/svg"><g><g><path d="m118.829 24.852h-92.788c-.858 0-1.692.354-2.288.975l-12.868 13.399c-.571.593-.885 1.374-.885 2.197v42.859c0 1.749 1.423 3.172 3.171 3.172h7.687v16.694c0 1.654 1.346 3 3 3h84.284c1.654 0 3-1.346 3-3v-16.694h7.687c1.749 0 3.171-1.423 3.171-3.172v-56.259c0-1.749-1.423-3.171-3.171-3.171z" fill="#e6e7e8"/></g><g><path d="m114.828 21.852h-92.787c-.591 0-1.157.241-1.566.667l-12.869 13.4c-.389.404-.606.943-.606 1.504v42.859c0 1.199.972 2.171 2.172 2.171h8.686v17.694c0 1.105.895 2 2 2h84.284c1.105 0 2-.895 2-2v-17.693h8.687c1.199 0 2.172-.972 2.172-2.171v-56.26c-.001-1.199-.973-2.171-2.173-2.171z" fill="#6dc9f7"/><g><path d="m114.828 21.852h-3c1.199 0 2.172.972 2.172 2.172v56.26c0 1.199-.972 2.171-2.172 2.171h3c1.199 0 2.172-.972 2.172-2.171v-56.26c0-1.2-.972-2.172-2.172-2.172z" fill="#fff"/></g><g fill="#d4fbff"><path d="m24.856 82.442h9.139v12.939h-9.139z"/><path d="m46.572 82.442h9.139v12.939h-9.139z"/><path d="m68.289 82.442h9.139v12.939h-9.139z"/><path d="m90.005 82.442h9.139v12.939h-9.139z"/></g><g fill="#fa759e"><circle cx="15.853" cy="73.869" r="3.038"/><path d="m108.147 70.831c-1.678 0-3.038 1.36-3.038 3.038s1.36 3.038 3.038 3.038 3.038-1.36 3.038-3.038-1.36-3.038-3.038-3.038z"/><path d="m108.147 27.398c-1.678 0-3.038 1.36-3.038 3.038s1.36 3.038 3.038 3.038 3.038-1.36 3.038-3.038c0-1.677-1.36-3.038-3.038-3.038z"/></g><g fill="#3a2c60"><path d="m114.829 20.852h-92.788c-.858 0-1.692.354-2.288.975l-12.868 13.399c-.571.593-.885 1.374-.885 2.197v42.859c0 1.749 1.423 3.172 3.171 3.172h7.687v16.694c0 1.654 1.346 3 3 3h53c.552 0 1-.447 1-1s-.448-1-1-1h-53c-.551 0-1-.448-1-1v-16.694h4.998v11.927c0 .553.448 1 1 1h9.139c.552 0 1-.447 1-1v-11.927h10.577v11.927c0 .553.448 1 1 1h9.139c.552 0 1-.447 1-1v-11.927h10.577v11.927c0 .553.448 1 1 1h9.139c.552 0 1-.447 1-1v-11.927h10.577v11.927c0 .553.448 1 1 1h9.139c.552 0 1-.447 1-1v-11.927h4.998v16.694c0 .552-.449 1-1 1h-14.725c-.552 0-1 .447-1 1s.448 1 1 1h14.726c1.654 0 3-1.346 3-3v-16.694h7.687c1.749 0 3.171-1.423 3.171-3.172v-56.259c0-1.749-1.423-3.171-3.171-3.171zm-81.834 73.529h-7.139v-10.927h7.139zm21.716 0h-7.139v-10.927h7.139zm21.717 0h-7.139v-10.927h7.139zm21.716 0h-7.139v-10.927h7.139zm17.856-14.099c0 .646-.525 1.172-1.171 1.172h-8.629c-.02-.001-.037-.012-.058-.012h-6.998-9.139-12.577-9.139-12.578-9.139-12.577-9.139-6.998c-.021 0-.038.01-.058.012h-8.629c-.646 0-1.171-.525-1.171-1.172v-42.859c0-.304.116-.592.327-.812l12.869-13.399c.22-.229.528-.36.846-.36h92.788c.646 0 1.171.525 1.171 1.172v56.258z"/><path d="m85.166 101.148h-7.739c-.552 0-1 .447-1 1s.448 1 1 1h7.739c.552 0 1-.447 1-1s-.447-1-1-1z"/><path d="m15.853 69.831c-2.227 0-4.039 1.812-4.039 4.038s1.812 4.038 4.039 4.038 4.038-1.812 4.038-4.038-1.811-4.038-4.038-4.038zm0 6.076c-1.124 0-2.039-.914-2.039-2.038s.915-2.038 2.039-2.038 2.038.914 2.038 2.038-.914 2.038-2.038 2.038z"/><path d="m108.147 69.831c-2.227 0-4.038 1.812-4.038 4.038s1.812 4.038 4.038 4.038c2.227 0 4.039-1.812 4.039-4.038s-1.812-4.038-4.039-4.038zm0 6.076c-1.124 0-2.038-.914-2.038-2.038s.914-2.038 2.038-2.038 2.039.914 2.039 2.038-.915 2.038-2.039 2.038z"/><path d="m108.147 26.398c-2.227 0-4.038 1.812-4.038 4.038s1.812 4.038 4.038 4.038c2.227 0 4.039-1.812 4.039-4.038s-1.812-4.038-4.039-4.038zm0 6.077c-1.124 0-2.038-.914-2.038-2.038s.914-2.038 2.038-2.038 2.039.914 2.039 2.038-.915 2.038-2.039 2.038z"/><path d="m94.031 40.075c-3.778 0-6.903 2.823-7.394 6.47h-21.701l-8.884-11.554c-.189-.246-.482-.391-.793-.391h-17.897c-.491-3.646-3.616-6.469-7.394-6.469-4.118 0-7.469 3.351-7.469 7.469 0 4.119 3.351 7.47 7.469 7.47 3.779 0 6.903-2.823 7.394-6.47h17.404l8.884 11.554c.189.246.482.391.793.391h22.194c.491 3.646 3.615 6.469 7.394 6.469 4.119 0 7.469-3.351 7.469-7.469 0-4.119-3.35-7.47-7.469-7.47zm-64.063.995c-3.016 0-5.469-2.454-5.469-5.47s2.453-5.469 5.469-5.469 5.469 2.453 5.469 5.469-2.453 5.47-5.469 5.47zm64.063 11.944c-3.016 0-5.469-2.453-5.469-5.469s2.453-5.47 5.469-5.47 5.469 2.454 5.469 5.47-2.453 5.469-5.469 5.469z"/><path d="m75.573 53.105c-3.779 0-6.903 2.823-7.394 6.469h-30.817c-.491-3.646-3.616-6.469-7.394-6.469-4.118 0-7.469 3.351-7.469 7.469 0 4.119 3.351 7.47 7.469 7.47 3.779 0 6.903-2.823 7.394-6.47h30.816c.491 3.647 3.615 6.47 7.394 6.47 4.118 0 7.469-3.351 7.469-7.47 0-4.118-3.35-7.469-7.468-7.469zm-45.605 12.939c-3.016 0-5.469-2.454-5.469-5.47s2.453-5.469 5.469-5.469 5.469 2.453 5.469 5.469-2.453 5.47-5.469 5.47zm45.605 0c-3.016 0-5.469-2.454-5.469-5.47s2.454-5.469 5.469-5.469 5.469 2.453 5.469 5.469-2.454 5.47-5.469 5.47z"/><path d="m54.811 48.631c0-4.119-3.351-7.47-7.469-7.47-4.119 0-7.469 3.351-7.469 7.47 0 4.118 3.351 7.469 7.469 7.469s7.469-3.351 7.469-7.469zm-12.938 0c0-3.016 2.454-5.47 5.469-5.47s5.469 2.454 5.469 5.47-2.454 5.469-5.469 5.469-5.469-2.454-5.469-5.469z"/><path d="m73.401 43.07c4.118 0 7.469-3.351 7.469-7.47 0-4.118-3.351-7.469-7.469-7.469-4.119 0-7.469 3.351-7.469 7.469 0 4.12 3.351 7.47 7.469 7.47zm0-12.938c3.016 0 5.469 2.453 5.469 5.469s-2.453 5.47-5.469 5.47-5.469-2.454-5.469-5.47 2.454-5.469 5.469-5.469z"/></g></g></g></svg>